<?xml version="1.0" encoding="UTF-8" standalone="no"?>
<!-- Created with Inkscape (http://www.inkscape.org/) -->

<svg
   xmlns:dc="http://purl.org/dc/elements/1.1/"
   xmlns:cc="http://creativecommons.org/ns#"
   xmlns:rdf="http://www.w3.org/1999/02/22-rdf-syntax-ns#"
   xmlns:svg="http://www.w3.org/2000/svg"
   xmlns="http://www.w3.org/2000/svg"
   xmlns:sodipodi="http://sodipodi.sourceforge.net/DTD/sodipodi-0.dtd"
   xmlns:inkscape="http://www.inkscape.org/namespaces/inkscape"
   version="1.1"
   id="svg10912"
   xml:space="preserve"
   width="600"
   height="600"
   viewBox="0 100 600 600"
   sodipodi:docname="I-love-Tunisia-publicdomainvectors.org.svg"
   inkscape:version="0.92.4 (5da689c313, 2019-01-14)"><metadata
     id="metadata10918"><rdf:RDF><cc:Work
         rdf:about=""><dc:format>image/svg+xml</dc:format><dc:type
           rdf:resource="http://purl.org/dc/dcmitype/StillImage" /><dc:title></dc:title></cc:Work></rdf:RDF></metadata><defs
     id="defs10916"><clipPath
       clipPathUnits="userSpaceOnUse"
       id="clipPath10928"><path
         d="M 0,600 H 600 V 0 H 0 Z"
         id="path10926"
         inkscape:connector-curvature="0" /></clipPath></defs><sodipodi:namedview
     pagecolor="#ffffff"
     bordercolor="#666666"
     borderopacity="1"
     objecttolerance="10"
     gridtolerance="10"
     guidetolerance="10"
     inkscape:pageopacity="0"
     inkscape:pageshadow="2"
     inkscape:window-width="1920"
     inkscape:window-height="1018"
     id="namedview10914"
     showgrid="false"
     inkscape:zoom="0.97075581"
     inkscape:cx="420.33898"
     inkscape:cy="389.83051"
     inkscape:window-x="-8"
     inkscape:window-y="-8"
     inkscape:window-maximized="1"
     inkscape:current-layer="g10920" /><g
     id="g10920"
     inkscape:groupmode="layer"
     inkscape:label="I-love-Tunisia-publicdomainvectors.org"
     transform="matrix(1.3333333,0,0,-1.3333333,0,800)"><g
       id="g10922"><g
         id="g10924"
         clip-path="url(#clipPath10928)"><path
           d="m 430.934,177.519 c 0.034,0.044 0.073,0.097 0.113,0.167 -0.035,-0.059 -0.074,-0.115 -0.113,-0.167"
           style="fill:#296eb9;fill-opacity:1;fill-rule:nonzero;stroke:none"
           id="path10930"
           inkscape:connector-curvature="0" /><path
           d="m 564.213,377.516 c 0,0.65 -0.169,1.306 -0.525,1.907 -1.045,1.754 -3.306,2.343 -5.074,1.321 0,0 -46.238,-26.696 -65.804,-37.992 12.856,7.801 50.916,30.896 50.916,30.896 1.156,0.701 1.796,1.932 1.796,3.195 0,0.645 -0.168,1.301 -0.521,1.897 -1.042,1.76 -3.306,2.354 -5.077,1.33 0,0 -66.571,-38.433 -121.483,-70.135 55.818,34.345 122.538,75.404 122.538,75.404 1.145,0.703 1.777,1.927 1.777,3.182 0,0.65 -0.17,1.307 -0.527,1.907 -1.045,1.753 -3.304,2.341 -5.073,1.321 0,0 -28.756,-16.601 -34.822,-20.105 6.972,4.21 37.422,22.604 37.422,22.604 1.161,0.702 1.803,1.934 1.803,3.2 0,0.645 -0.166,1.299 -0.519,1.894 -1.04,1.762 -3.309,2.357 -5.079,1.334 0,0 -54.624,-31.535 -85.979,-49.637 41.895,25.53 104.077,63.426 104.077,63.426 1.15,0.702 1.789,1.93 1.789,3.189 0,0.648 -0.168,1.305 -0.523,1.901 -1.042,1.758 -3.306,2.351 -5.076,1.328 0,0 -30.431,-17.569 -36.749,-21.217 1.739,1.047 18.271,11.004 18.271,11.004 1.165,0.701 1.807,1.935 1.807,3.201 0,0.644 -0.166,1.298 -0.516,1.893 -1.041,1.763 -3.308,2.359 -5.082,1.336 0,0 -37.505,-21.655 -48.451,-27.973 15.826,9.561 59.788,36.124 59.788,36.124 1.159,0.699 1.802,1.933 1.802,3.197 0,0.646 -0.166,1.299 -0.518,1.894 -1.042,1.762 -3.307,2.359 -5.08,1.334 0,0 -77.482,-44.733 -145.08,-83.76 68.211,41.793 145.665,89.25 145.665,89.25 1.148,0.703 1.783,1.929 1.783,3.185 0,0.649 -0.169,1.306 -0.526,1.905 -1.044,1.755 -3.304,2.346 -5.074,1.322 0,0 -13.317,-7.687 -14.3,-8.254 0.716,0.708 1.205,1.593 1.205,2.576 0,0.644 -0.164,1.295 -0.513,1.889 -1.038,1.767 -3.31,2.364 -5.084,1.339 0,0 -70.921,-40.945 -128.473,-74.173 66.012,40.415 142.317,87.132 142.317,87.132 1.15,0.703 1.784,1.929 1.784,3.187 0,0.649 -0.169,1.306 -0.526,1.904 -1.043,1.755 -3.304,2.345 -5.073,1.324 0,0 -77.239,-44.595 -143.555,-82.882 53.219,32.567 120.946,74.015 120.946,74.015 1.149,0.703 1.785,1.928 1.785,3.185 0,0.65 -0.169,1.307 -0.523,1.905 -1.045,1.754 -3.306,2.345 -5.075,1.324 0,0 -70.833,-40.895 -126.944,-73.292 57.655,35.242 129.071,78.896 129.071,78.896 1.15,0.703 1.786,1.929 1.786,3.188 0,0.649 -0.168,1.305 -0.523,1.903 -1.043,1.757 -3.307,2.348 -5.074,1.325 0,0 -66.379,-38.322 -110.748,-63.939 35.163,21.364 94.187,57.226 94.187,57.226 1.155,0.702 1.795,1.933 1.795,3.194 0,0.646 -0.168,1.303 -0.522,1.899 -1.042,1.759 -3.305,2.353 -5.077,1.329 0,0 -68.405,-39.494 -119.136,-68.783 47.03,28.684 112.382,68.544 112.382,68.544 1.153,0.703 1.789,1.93 1.789,3.19 0,0.648 -0.169,1.304 -0.522,1.901 -0.786,1.323 -2.252,1.89 -3.689,1.7 0.789,0.718 1.313,1.656 1.313,2.689 0,0.642 -0.165,1.294 -0.515,1.889 -1.039,1.767 -3.308,2.364 -5.084,1.339 0,0 -104.676,-60.436 -207.573,-119.844 23.66,14.871 60.747,38.179 60.747,38.179 1.126,0.708 1.745,1.921 1.745,3.163 0,0.656 -0.172,1.321 -0.535,1.924 -1.05,1.743 -3.3,2.323 -5.062,1.305 0,0 -25.997,-15.008 -35.128,-20.28 5.399,3.363 25.703,16.006 25.703,16.006 1.135,0.707 1.759,1.925 1.759,3.172 0,0.653 -0.17,1.316 -0.532,1.916 -1.046,1.747 -3.302,2.331 -5.066,1.313 0,0 -36.445,-21.042 -59.954,-34.616 19.681,12.422 52.778,33.312 52.778,33.312 1.123,0.711 1.74,1.921 1.74,3.161 0,0.657 -0.173,1.323 -0.536,1.926 -1.051,1.738 -3.301,2.319 -5.062,1.303 0,0 -42.524,-24.551 -79.352,-45.815 36.151,23.204 77.726,49.89 77.726,49.89 1.108,0.713 1.716,1.914 1.716,3.144 0,0.662 -0.177,1.332 -0.544,1.938 -1.054,1.732 -3.299,2.304 -5.055,1.291 0,0 -37.645,-21.734 -64.117,-37.019 30.533,19.358 70.538,44.72 70.538,44.72 1.12,0.711 1.733,1.919 1.733,3.156 0,0.659 -0.174,1.325 -0.538,1.931 -1.053,1.736 -3.301,2.313 -5.059,1.298 0,0 -43.425,-25.073 -82.669,-47.729 32.606,21.042 70.879,45.739 70.879,45.739 1.105,0.713 1.709,1.913 1.709,3.139 0,0.664 -0.178,1.336 -0.548,1.943 -0.664,1.087 -1.807,1.672 -2.994,1.736 0.236,0.502 0.406,1.033 0.406,1.588 0,0.648 -0.17,1.305 -0.525,1.903 -0.77,1.296 -2.197,1.873 -3.608,1.72 0.21,0.129 4.678,2.891 4.678,2.891 1.14,0.705 1.77,1.927 1.77,3.178 0,0.651 -0.17,1.312 -0.529,1.911 -1.045,1.751 -3.304,2.337 -5.069,1.317 0,0 -45.717,-26.394 -88.652,-51.182 33.043,21.395 71.151,46.064 71.151,46.064 1.1,0.713 1.703,1.912 1.703,3.136 0,0.665 -0.178,1.337 -0.549,1.946 -1.057,1.725 -3.298,2.296 -5.049,1.283 0,0 -26.124,-15.082 -37.735,-21.785 16.332,10.324 46.393,29.329 46.393,29.329 1.122,0.709 1.738,1.92 1.738,3.159 0,0.657 -0.174,1.324 -0.538,1.926 -1.052,1.74 -3.302,2.319 -5.061,1.301 0,0 -5.475,-3.159 -5.811,-3.353 0.363,0.59 0.593,1.246 0.593,1.935 0,0.654 -0.172,1.314 -0.53,1.915 -1.048,1.748 -3.303,2.332 -5.068,1.314 0,0 -37.543,-21.676 -69.619,-40.194 30.453,19.769 66.387,43.096 66.387,43.096 1.099,0.714 1.7,1.911 1.7,3.135 0,0.665 -0.176,1.338 -0.549,1.946 -1.058,1.725 -3.296,2.294 -5.048,1.283 0,0 -28.816,-16.636 -46.443,-26.814 9.732,6.254 31.373,20.159 31.373,20.159 1.109,0.713 1.714,1.914 1.714,3.145 0,0.661 -0.176,1.332 -0.545,1.938 -1.054,1.73 -3.297,2.302 -5.052,1.289 0,0 -17.358,-10.02 -23.553,-13.598 3.187,2.062 15.843,10.251 15.843,10.251 1.103,0.713 1.705,1.911 1.705,3.136 0,0.665 -0.177,1.337 -0.548,1.945 -1.057,1.725 -3.297,2.298 -5.051,1.284 0,0 -24.999,-14.434 -45.093,-26.035 12.593,8.539 31.845,21.593 31.845,21.593 1.063,0.72 1.639,1.893 1.639,3.092 0,0.679 -0.185,1.364 -0.57,1.978 -1.068,1.702 -3.289,2.255 -5.029,1.251 0,0 -25.846,-14.922 -50.886,-29.378 14.403,10.329 31.99,22.943 31.99,22.943 1.011,0.727 1.556,1.87 1.556,3.034 0,0.696 -0.193,1.398 -0.595,2.022 -1.08,1.671 -3.281,2.203 -5.002,1.208 0,0 -14.725,-8.499 -28.216,-16.29 4.647,3.707 12.586,10.039 12.586,10.039 0.921,0.733 1.404,1.818 1.404,2.92 0,0.725 -0.211,1.459 -0.647,2.1 -1.101,1.614 -3.259,2.106 -4.951,1.129 l -36.801,-21.248 c -1.198,-0.69 -1.868,-1.945 -1.868,-3.235 0,-0.632 0.162,-1.273 0.501,-1.861 0.619,-1.073 1.709,-1.643 2.853,-1.767 -7.289,-5.813 -16.656,-13.284 -16.656,-13.284 -0.921,-0.734 -1.406,-1.819 -1.406,-2.921 0,-0.726 0.211,-1.459 0.649,-2.101 1.099,-1.613 3.258,-2.106 4.95,-1.129 0,0 4.944,2.856 5.815,3.358 -14.402,-10.328 -31.987,-22.943 -31.987,-22.943 -1.013,-0.726 -1.557,-1.87 -1.557,-3.034 0,-0.695 0.193,-1.396 0.595,-2.02 1.079,-1.673 3.28,-2.204 5.003,-1.21 0,0 17.359,10.021 26.945,15.556 -12.607,-8.547 -31.87,-21.607 -31.87,-21.607 -1.06,-0.721 -1.636,-1.894 -1.636,-3.093 0,-0.678 0.184,-1.363 0.569,-1.978 1.066,-1.702 3.289,-2.255 5.028,-1.25 0,0 6.268,3.618 6.948,4.01 -3.191,-2.064 -15.849,-10.253 -15.849,-10.253 -1.103,-0.713 -1.705,-1.912 -1.705,-3.137 0,-0.665 0.178,-1.337 0.549,-1.945 1.056,-1.726 3.297,-2.298 5.049,-1.285 0,0 12.425,7.173 15.16,8.752 -9.703,-6.234 -31.322,-20.126 -31.322,-20.126 -1.107,-0.712 -1.714,-1.913 -1.714,-3.142 0,-0.662 0.177,-1.333 0.545,-1.939 1.055,-1.731 3.298,-2.303 5.054,-1.29 0,0 33.051,19.081 58.618,33.843 -30.477,-19.784 -66.424,-43.121 -66.424,-43.121 -1.099,-0.714 -1.701,-1.91 -1.701,-3.134 0,-0.665 0.178,-1.34 0.551,-1.946 1.058,-1.726 3.296,-2.294 5.048,-1.282 0,0 4.225,2.437 4.423,2.552 -0.364,-0.589 -0.593,-1.245 -0.593,-1.936 0,-0.653 0.172,-1.315 0.53,-1.914 1.048,-1.749 3.303,-2.333 5.068,-1.315 0,0 24.145,13.94 33.876,19.559 -16.322,-10.319 -46.375,-29.318 -46.375,-29.318 -1.121,-0.709 -1.738,-1.919 -1.738,-3.159 0,-0.658 0.174,-1.325 0.538,-1.926 1.051,-1.741 3.301,-2.32 5.061,-1.302 0,0 38.682,22.333 71.865,41.491 C 89.743,358.229 51.636,333.56 51.636,333.56 c -1.1,-0.713 -1.703,-1.913 -1.703,-3.137 0,-0.665 0.177,-1.337 0.548,-1.945 1.056,-1.727 3.297,-2.298 5.05,-1.284 0,0 5.891,3.4 6.242,3.604 -0.73,-0.713 -1.222,-1.61 -1.222,-2.602 0,-0.652 0.171,-1.31 0.528,-1.911 0.448,-0.751 1.148,-1.192 1.907,-1.481 -0.116,-0.072 -3.475,-2.127 -3.475,-2.127 -1.15,-0.702 -1.784,-1.929 -1.784,-3.187 0,-0.649 0.169,-1.305 0.523,-1.904 1.044,-1.755 3.306,-2.346 5.074,-1.324 0,0 41.432,23.92 77.879,44.964 -32.617,-21.051 -70.893,-45.75 -70.893,-45.75 -1.103,-0.712 -1.707,-1.913 -1.707,-3.139 0,-0.664 0.175,-1.336 0.546,-1.942 1.056,-1.729 3.297,-2.299 5.052,-1.288 0,0 34.761,20.071 57.238,33.048 -30.5,-19.336 -70.488,-44.687 -70.488,-44.687 -1.119,-0.71 -1.734,-1.918 -1.734,-3.155 0,-0.661 0.174,-1.327 0.539,-1.931 1.054,-1.736 3.3,-2.314 5.058,-1.298 0,0 43.91,25.35 82.709,47.749 -36.151,-23.203 -77.726,-49.89 -77.726,-49.89 -1.109,-0.711 -1.717,-1.912 -1.717,-3.143 0,-0.662 0.177,-1.332 0.544,-1.939 1.055,-1.729 3.298,-2.303 5.055,-1.291 0,0 33.36,19.262 52.843,30.51 -19.706,-12.437 -52.818,-33.337 -52.818,-33.337 -1.122,-0.71 -1.739,-1.919 -1.739,-3.159 0,-0.658 0.173,-1.324 0.536,-1.927 1.051,-1.74 3.301,-2.318 5.062,-1.302 0,0 23.168,13.376 30.229,17.453 -5.385,-3.355 -25.667,-15.983 -25.667,-15.983 -1.135,-0.708 -1.759,-1.925 -1.759,-3.174 0,-0.653 0.17,-1.314 0.531,-1.916 1.048,-1.747 3.302,-2.331 5.068,-1.312 0,0 35.458,20.473 56.43,32.581 -23.674,-14.88 -60.769,-38.192 -60.769,-38.192 -1.125,-0.708 -1.745,-1.921 -1.745,-3.165 0,-0.656 0.172,-1.32 0.536,-1.922 1.05,-1.743 3.302,-2.324 5.062,-1.305 0,0 9.804,5.66 10.351,5.976 -0.288,-0.543 -0.454,-1.146 -0.454,-1.762 0,-0.642 0.166,-1.294 0.516,-1.888 1.038,-1.767 3.308,-2.365 5.083,-1.34 0,0 60.003,34.642 98.953,57.131 -47.046,-28.695 -112.407,-68.559 -112.407,-68.559 -1.152,-0.704 -1.789,-1.93 -1.789,-3.19 0,-0.648 0.168,-1.304 0.522,-1.902 1.044,-1.758 3.306,-2.35 5.076,-1.326 0,0 61.208,35.336 98.638,56.947 -35.158,-21.361 -94.182,-57.224 -94.182,-57.224 -1.156,-0.701 -1.795,-1.931 -1.795,-3.192 0,-0.648 0.167,-1.304 0.521,-1.899 1.043,-1.759 3.305,-2.352 5.077,-1.33 0,0 68.397,39.488 130.573,75.385 5.982,31.505 33.656,55.327 66.901,55.327 37.613,0 68.104,-30.491 68.104,-68.102 0,-32.823 -23.22,-60.219 -54.127,-66.666 -43.437,-26.659 -95.192,-58.421 -95.192,-58.421 -1.148,-0.703 -1.781,-1.927 -1.781,-3.184 0,-0.649 0.169,-1.307 0.526,-1.906 1.044,-1.755 3.304,-2.344 5.072,-1.322 0,0 1.383,0.797 1.394,0.804 -1.143,-0.703 -1.783,-1.922 -1.783,-3.177 0,-0.645 0.166,-1.298 0.52,-1.893 1.04,-1.764 3.308,-2.359 5.079,-1.334 0,0 57.032,32.926 97.202,56.118 -41.511,-25.507 -99.02,-60.845 -99.02,-60.845 -1.146,-0.705 -1.779,-1.93 -1.779,-3.183 0,-0.651 0.168,-1.31 0.526,-1.907 1.045,-1.755 3.304,-2.344 5.073,-1.323 0,0 5.127,2.96 5.297,3.058 -0.062,-0.036 -3.123,-1.888 -3.123,-1.888 -1.16,-0.701 -1.802,-1.932 -1.802,-3.197 0,-0.645 0.166,-1.299 0.519,-1.894 1.041,-1.763 3.307,-2.359 5.08,-1.334 0,0 33.467,19.323 43.433,25.076 -5.99,-3.641 -32.361,-19.676 -32.361,-19.676 -1.155,-0.702 -1.795,-1.932 -1.795,-3.192 0,-0.648 0.169,-1.303 0.521,-1.9 1.043,-1.759 3.306,-2.351 5.079,-1.329 0,0 19.852,11.462 23.072,13.321 -2.633,-1.603 -20.579,-12.518 -20.579,-12.518 -1.155,-0.701 -1.794,-1.931 -1.794,-3.193 0,-0.648 0.168,-1.301 0.521,-1.898 1.043,-1.759 3.307,-2.353 5.077,-1.33 0,0 54.357,31.381 97.831,56.482 -33.095,-20.594 -79.777,-49.642 -79.777,-49.642 -1.134,-0.705 -1.761,-1.924 -1.761,-3.171 0,-0.654 0.172,-1.317 0.533,-1.917 1.048,-1.746 3.302,-2.331 5.067,-1.311 0,0 25.865,14.932 33.089,19.103 -6.877,-4.23 -31.946,-19.649 -31.946,-19.649 -1.146,-0.705 -1.778,-1.928 -1.778,-3.183 0,-0.652 0.169,-1.31 0.526,-1.907 1.045,-1.753 3.305,-2.342 5.072,-1.322 0,0 51.057,29.477 95.317,55.03 -34.959,-22.056 -79.106,-49.908 -79.106,-49.908 -1.122,-0.708 -1.739,-1.92 -1.739,-3.159 0,-0.657 0.172,-1.324 0.536,-1.926 1.052,-1.74 3.302,-2.32 5.061,-1.302 0,0 42.275,24.406 75.658,43.679 -18.384,-11.664 -49.425,-31.36 -49.425,-31.36 -1.12,-0.71 -1.734,-1.919 -1.734,-3.155 0,-0.658 0.174,-1.326 0.539,-1.93 1.053,-1.737 3.301,-2.314 5.061,-1.298 0,0 41.187,23.779 81.444,47.023 -12.832,-8.549 -33.588,-22.373 -33.588,-22.373 -1.077,-0.719 -1.663,-1.903 -1.663,-3.111 0,-0.672 0.182,-1.353 0.562,-1.964 1.062,-1.713 3.292,-2.271 5.037,-1.263 l 108.009,62.357 c 1.785,1.03 2.397,3.314 1.366,5.099 -1.03,1.784 -3.313,2.396 -5.098,1.365 0,0 -6.214,-3.588 -7.084,-4.089 12.85,8.559 33.613,22.39 33.613,22.39 1.078,0.717 1.663,1.901 1.663,3.11 0,0.672 -0.18,1.354 -0.561,1.964 -1.062,1.712 -3.293,2.271 -5.037,1.264 0,0 -20.616,-11.903 -27.798,-16.049 18.376,11.661 49.415,31.353 49.415,31.353 1.12,0.711 1.734,1.919 1.734,3.158 0,0.658 -0.174,1.325 -0.541,1.928 -1.052,1.738 -3.299,2.315 -5.058,1.298 0,0 -38.813,-22.408 -65.438,-37.778 34.922,22.03 79.051,49.871 79.051,49.871 1.123,0.708 1.742,1.92 1.742,3.16 0,0.657 -0.174,1.324 -0.538,1.925 -1.051,1.741 -3.301,2.32 -5.061,1.303 0,0 -22.495,-12.987 -27.804,-16.051 6.878,4.23 31.946,19.648 31.946,19.648 1.146,0.706 1.778,1.929 1.778,3.183 0,0.651 -0.17,1.31 -0.527,1.908 -1.044,1.753 -3.303,2.341 -5.071,1.321 0,0 -42.69,-24.646 -69.666,-40.221 33.116,20.608 79.81,49.663 79.81,49.663 1.135,0.707 1.76,1.925 1.76,3.173 0,0.653 -0.172,1.314 -0.53,1.915 -1.049,1.748 -3.304,2.332 -5.067,1.312 0,0 -10.125,-5.844 -10.904,-6.294 2.648,1.611 20.637,12.552 20.637,12.552 1.155,0.703 1.793,1.933 1.793,3.193 0,0.648 -0.167,1.303 -0.52,1.9 -1.042,1.759 -3.307,2.352 -5.078,1.329 0,0 -18.065,-10.431 -20.673,-11.936 5.984,3.639 32.35,19.668 32.35,19.668 1.153,0.702 1.793,1.933 1.793,3.194 0,0.646 -0.168,1.302 -0.52,1.898 -1.043,1.76 -3.306,2.353 -5.078,1.33 0,0 -7.615,-4.395 -7.994,-4.615 0.062,0.039 3.153,1.907 3.153,1.907 1.161,0.701 1.802,1.933 1.802,3.198 0,0.645 -0.167,1.297 -0.518,1.895 -1.041,1.761 -3.308,2.355 -5.08,1.332 0,0 -53.98,-31.164 -89.896,-51.9 41.501,25.501 99.005,60.836 99.005,60.836 1.146,0.704 1.778,1.928 1.778,3.183 0,0.65 -0.168,1.31 -0.525,1.906 -1.046,1.755 -3.305,2.344 -5.074,1.323 0,0 -2.037,-1.176 -2.063,-1.192 1.139,0.704 1.777,1.918 1.777,3.171 0,0.645 -0.166,1.299 -0.519,1.894 -1.041,1.763 -3.307,2.358 -5.08,1.334 0,0 -55.069,-31.794 -91.705,-52.945 45.11,27.685 105.727,64.885 105.727,64.885 1.146,0.704 1.779,1.929 1.779,3.185"
           style="fill:#dc2831;fill-opacity:1;fill-rule:nonzero;stroke:none"
           id="path10932"
           inkscape:connector-curvature="0" /><path
           d="m 230.081,307.821 c -55.319,-33.812 -117.935,-72.087 -117.935,-72.087 -1.152,-0.704 -1.787,-1.929 -1.787,-3.188 0,-0.65 0.168,-1.306 0.524,-1.902 1.043,-1.757 3.305,-2.348 5.074,-1.328 0,0 58.125,33.559 113.015,65.25 -0.004,0.302 -0.011,0.602 -0.011,0.906 0,4.217 0.386,8.344 1.12,12.349"
           style="fill:#dc2831;fill-opacity:1;fill-rule:nonzero;stroke:none"
           id="path10934"
           inkscape:connector-curvature="0" /><path
           d="m 275.625,230.815 c -45.459,-27.973 -87.822,-54.042 -87.822,-54.042 -1.145,-0.703 -1.778,-1.927 -1.778,-3.181 0,-0.65 0.172,-1.309 0.528,-1.907 1.046,-1.753 3.304,-2.342 5.071,-1.322 0,0 40.828,23.572 55.634,32.12 -12.865,-7.807 -50.938,-30.909 -50.938,-30.909 -1.155,-0.702 -1.796,-1.932 -1.796,-3.194 0,-0.647 0.168,-1.302 0.521,-1.898 1.043,-1.76 3.307,-2.353 5.079,-1.331 0,0 58.228,33.618 109.909,63.455 -4.199,-0.809 -8.534,-1.238 -12.97,-1.238 -7.49,0 -14.697,1.213 -21.438,3.447"
           style="fill:#dc2831;fill-opacity:1;fill-rule:nonzero;stroke:none"
           id="path10936"
           inkscape:connector-curvature="0" /><path
           d="m 237.281,262.829 c -50.706,-31.067 -94.49,-57.894 -94.49,-57.894 -1.148,-0.704 -1.782,-1.929 -1.782,-3.185 0,-0.649 0.169,-1.307 0.525,-1.905 1.043,-1.755 3.305,-2.346 5.073,-1.324 0,0 48.458,27.977 67.86,39.178 -15.833,-9.567 -59.806,-36.135 -59.806,-36.135 -1.159,-0.699 -1.802,-1.932 -1.802,-3.198 0,-0.644 0.166,-1.298 0.52,-1.893 1.041,-1.763 3.307,-2.358 5.08,-1.334 0,0 20.509,11.84 23.218,13.404 -1.744,-1.049 -18.297,-11.018 -18.297,-11.018 -1.163,-0.702 -1.807,-1.935 -1.807,-3.202 0,-0.643 0.167,-1.298 0.518,-1.892 1.039,-1.764 3.307,-2.36 5.081,-1.335 0,0 45.307,26.158 87.907,50.751 -7.263,5.694 -13.339,12.833 -17.798,20.982"
           style="fill:#dc2831;fill-opacity:1;fill-rule:nonzero;stroke:none"
           id="path10938"
           inkscape:connector-curvature="0" /><path
           d="m 127.066,231.546 c -1.148,-0.704 -1.782,-1.929 -1.782,-3.188 0,-0.648 0.168,-1.305 0.523,-1.903 1.045,-1.756 3.305,-2.347 5.075,-1.324 0,0 46.779,27.008 99.323,57.344 -0.719,3.713 -1.138,7.535 -1.225,11.437 -49.034,-30.007 -101.914,-62.366 -101.914,-62.366"
           style="fill:#dc2831;fill-opacity:1;fill-rule:nonzero;stroke:none"
           id="path10940"
           inkscape:connector-curvature="0" /><path
           d="m 134.205,222.086 c -1.149,-0.704 -1.783,-1.929 -1.783,-3.187 0,-0.649 0.169,-1.306 0.525,-1.904 0.801,-1.348 2.307,-1.902 3.77,-1.675 -0.175,-0.104 -5.831,-3.495 -5.831,-3.495 -1.167,-0.699 -1.815,-1.933 -1.815,-3.205 0,-0.642 0.165,-1.295 0.516,-1.889 1.038,-1.766 3.308,-2.364 5.083,-1.339 0,0 47.219,27.262 101.876,58.819 -2.717,5.248 -4.768,10.895 -6.048,16.829 -50.985,-31.215 -96.293,-58.954 -96.293,-58.954"
           style="fill:#dc2831;fill-opacity:1;fill-rule:nonzero;stroke:none"
           id="path10942"
           inkscape:connector-curvature="0" /><path
           d="m 177.485,193.711 c -1.152,-0.702 -1.789,-1.932 -1.789,-3.19 0,-0.649 0.167,-1.304 0.523,-1.901 1.042,-1.758 3.306,-2.35 5.075,-1.328 0,0 26.777,15.459 31.974,18.46 -6.955,-4.202 -37.378,-22.579 -37.378,-22.579 -1.161,-0.7 -1.804,-1.934 -1.804,-3.197 0,-0.646 0.167,-1.299 0.519,-1.895 1.042,-1.763 3.308,-2.358 5.081,-1.334 0,0 45.377,26.198 94.506,54.562 -6.714,2.393 -12.942,5.811 -18.497,10.065 -37.663,-22.953 -78.21,-47.663 -78.21,-47.663"
           style="fill:#dc2831;fill-opacity:1;fill-rule:nonzero;stroke:none"
           id="path10944"
           inkscape:connector-curvature="0" /><path
           d="m 251.826,271.741 c -4.889,-2.996 -9.748,-5.972 -14.545,-8.912 4.459,-8.149 10.535,-15.288 17.798,-20.982 5.53,3.193 11.015,6.359 16.349,9.439 -8.304,4.829 -15.121,11.932 -19.602,20.455"
           style="fill:#ffffff;fill-opacity:1;fill-rule:nonzero;stroke:none"
           id="path10946"
           inkscape:connector-curvature="0" /><path
           d="m 255.695,241.374 c 5.555,-4.254 11.783,-7.672 18.497,-10.065 7.519,4.34 15.125,8.731 22.67,13.087 -9.156,0.036 -17.744,2.479 -25.163,6.732 -5.187,-3.161 -10.565,-6.44 -16.004,-9.754"
           style="fill:#ffffff;fill-opacity:1;fill-rule:nonzero;stroke:none"
           id="path10948"
           inkscape:connector-curvature="0" /><path
           d="m 246.849,304.846 c -5.828,-3.565 -11.819,-7.232 -17.869,-10.934 0.087,-3.902 0.506,-7.724 1.225,-11.437 5.263,3.039 10.584,6.111 15.922,9.193 -0.092,1.255 -0.141,2.523 -0.141,3.804 0,3.202 0.298,6.335 0.863,9.374"
           style="fill:#ffffff;fill-opacity:1;fill-rule:nonzero;stroke:none"
           id="path10950"
           inkscape:connector-curvature="0" /><path
           d="m 230.498,281.04 c 1.28,-5.934 3.331,-11.581 6.048,-16.829 4.874,2.813 9.806,5.662 14.769,8.527 -2.731,5.488 -4.504,11.534 -5.102,17.924 -5.27,-3.226 -10.522,-6.442 -15.715,-9.622"
           style="fill:#ffffff;fill-opacity:1;fill-rule:nonzero;stroke:none"
           id="path10952"
           inkscape:connector-curvature="0" /><path
           d="m 365.167,295.472 c 0,37.611 -30.491,68.102 -68.104,68.102 -33.245,0 -60.919,-23.822 -66.901,-55.327 3.723,2.149 7.424,4.286 11.085,6.4 -3.674,-2.245 -7.402,-4.525 -11.166,-6.826 -0.734,-4.005 -1.12,-8.132 -1.12,-12.349 0,-0.304 0.007,-0.604 0.011,-0.906 6.028,3.481 12.016,6.939 17.884,10.327 4.422,23.708 25.217,41.655 50.207,41.655 16.971,0 32.006,-8.278 41.293,-21.015 8.109,-7.468 13.19,-18.171 13.19,-30.061 0,-11.893 -5.081,-22.596 -13.19,-30.063 -9.169,-12.576 -23.944,-20.801 -40.651,-21.008 -7.331,-4.509 -14.746,-9.073 -22.08,-13.586 6.741,-2.234 13.948,-3.447 21.438,-3.447 4.436,0 8.771,0.429 12.97,1.238 3.882,2.242 7.728,4.461 11.508,6.645 -3.422,-2.101 -6.934,-4.256 -10.501,-6.445 30.907,6.447 54.127,33.843 54.127,66.666"
           style="fill:#ffffff;fill-opacity:1;fill-rule:nonzero;stroke:none"
           id="path10954"
           inkscape:connector-curvature="0" /><path
           d="m 271.181,305.947 c -8.255,-5.053 -16.632,-10.182 -24.968,-15.285 0.598,-6.39 2.371,-12.436 5.102,-17.924 6.651,3.84 13.356,7.711 20.049,11.575 -1.004,3.547 -1.542,7.29 -1.542,11.159 0,3.621 0.474,7.132 1.359,10.475"
           style="fill:#dc2831;fill-opacity:1;fill-rule:nonzero;stroke:none"
           id="path10956"
           inkscape:connector-curvature="0" /><path
           d="m 310.685,336.333 c 10.674,0 20.393,-4.096 27.671,-10.8 -9.287,12.737 -24.322,21.015 -41.293,21.015 -24.99,0 -45.785,-17.947 -50.207,-41.655 0.395,0.227 0.788,0.454 1.179,0.68 -0.394,-0.242 -0.79,-0.484 -1.186,-0.727 -0.565,-3.039 -0.863,-6.172 -0.863,-9.374 0,-1.281 0.049,-2.549 0.141,-3.804 8.384,4.84 16.808,9.703 25.112,14.499 4.702,17.379 20.579,30.166 39.446,30.166"
           style="fill:#dc2831;fill-opacity:1;fill-rule:nonzero;stroke:none"
           id="path10958"
           inkscape:connector-curvature="0" /><path
           d="m 338.356,265.409 c -7.278,-6.704 -16.997,-10.801 -27.671,-10.801 -18.513,0 -34.148,12.314 -39.169,29.196 -6.569,-4.025 -13.157,-8.061 -19.69,-12.063 4.481,-8.523 11.298,-15.626 19.602,-20.455 3.442,1.988 6.822,3.94 10.112,5.838 -3.176,-1.935 -6.468,-3.94 -9.841,-5.996 7.419,-4.253 16.007,-6.696 25.163,-6.732 4.533,2.617 9.042,5.221 13.497,7.792 -4.168,-2.564 -8.396,-5.167 -12.654,-7.787 16.707,0.207 31.482,8.432 40.651,21.008"
           style="fill:#dc2831;fill-opacity:1;fill-rule:nonzero;stroke:none"
           id="path10960"
           inkscape:connector-curvature="0" /><path
           d="m 310.685,254.608 c 10.674,0 20.393,4.097 27.671,10.801 8.109,7.467 13.19,18.17 13.19,30.063 0,11.89 -5.081,22.593 -13.19,30.061 -7.278,6.704 -16.997,10.8 -27.671,10.8 -18.867,0 -34.744,-12.787 -39.446,-30.166 1.756,1.013 3.508,2.023 5.251,3.031 -1.762,-1.08 -3.533,-2.163 -5.309,-3.251 -0.885,-3.343 -1.359,-6.854 -1.359,-10.475 0,-3.869 0.538,-7.612 1.542,-11.159 5.182,2.993 10.356,5.979 15.49,8.944 l -6.816,2.215 21.176,6.88 v 22.265 l 13.088,-18.013 21.176,6.88 -13.088,-18.012 13.088,-18.014 -21.177,6.881 -13.087,-18.015 v 22.267 l -14.303,4.647 c -5.095,-3.123 -10.239,-6.275 -15.395,-9.434 5.021,-16.882 20.656,-29.196 39.169,-29.196"
           style="fill:#ffffff;fill-opacity:1;fill-rule:nonzero;stroke:none"
           id="path10962"
           inkscape:connector-curvature="0" /><path
           d="m 301.214,292.282 -21.176,3.19 6.816,-2.215 c 0.512,0.295 1.024,0.591 1.535,0.886 -0.492,-0.301 -0.985,-0.604 -1.478,-0.905 l 14.303,-4.647 z"
           style="fill:#dc2831;fill-opacity:1;fill-rule:nonzero;stroke:none"
           id="path10964"
           inkscape:connector-curvature="0" /><path
           d="m 301.214,293.972 v 2.999 5.381 l -21.176,-6.88 21.176,-3.19 z"
           style="fill:#dc2831;fill-opacity:1;fill-rule:nonzero;stroke:none"
           id="path10966"
           inkscape:connector-curvature="0" /><path
           d="m 301.214,296.971 h 4.594 l -0.036,0.215 -0.705,0.511 0.571,0.297 -4.424,26.623 v -22.265 z"
           style="fill:#dc2831;fill-opacity:1;fill-rule:nonzero;stroke:none"
           id="path10968"
           inkscape:connector-curvature="0" /><path
           d="m 305.638,297.994 0.918,0.477 0.275,1.653 1,-0.726 -1.499,4.617 7.97,2.589 -13.088,18.013 z"
           style="fill:#dc2831;fill-opacity:1;fill-rule:nonzero;stroke:none"
           id="path10970"
           inkscape:connector-curvature="0" /><path
           d="m 305.772,297.186 0.036,-0.215 h 0.26 z"
           style="fill:#dc2831;fill-opacity:1;fill-rule:nonzero;stroke:none"
           id="path10972"
           inkscape:connector-curvature="0" /><path
           d="m 306.332,304.015 1.499,-4.617 0.214,-0.156 2.752,1.43 0.269,0.829 0.458,-0.451 23.954,12.434 -21.176,-6.88 z"
           style="fill:#dc2831;fill-opacity:1;fill-rule:nonzero;stroke:none"
           id="path10974"
           inkscape:connector-curvature="0" /><path
           d="m 306.307,296.971 0.249,1.5 -0.918,-0.477 -0.571,-0.297 0.705,-0.511 0.296,-0.215 z"
           style="fill:#dc2831;fill-opacity:1;fill-rule:nonzero;stroke:none"
           id="path10976"
           inkscape:connector-curvature="0" /><path
           d="m 311.524,301.05 1.82,-1.792 4.12,2.993 4.926,-6.779 13.088,18.012 z"
           style="fill:#dc2831;fill-opacity:1;fill-rule:nonzero;stroke:none"
           id="path10978"
           inkscape:connector-curvature="0" /><path
           d="m 310.797,300.672 -2.752,-1.43 1.851,-1.344 z"
           style="fill:#dc2831;fill-opacity:1;fill-rule:nonzero;stroke:none"
           id="path10980"
           inkscape:connector-curvature="0" /><path
           d="m 317.464,302.251 -4.12,-2.993 2.322,-2.287 h 0.871 l -0.287,-0.575 19.228,-18.938 -13.088,18.014 z"
           style="fill:#dc2831;fill-opacity:1;fill-rule:nonzero;stroke:none"
           id="path10982"
           inkscape:connector-curvature="0" /><path
           d="m 309.896,297.898 1.276,-0.927 h 4.494 l -2.322,2.287 -1.82,1.792 -0.458,0.451 -0.269,-0.829 z"
           style="fill:#dc2831;fill-opacity:1;fill-rule:nonzero;stroke:none"
           id="path10984"
           inkscape:connector-curvature="0" /><path
           d="m 316.25,296.396 -1.143,-2.285 4.121,-2.993 -4.927,-6.779 21.177,-6.881 z"
           style="fill:#dc2831;fill-opacity:1;fill-rule:nonzero;stroke:none"
           id="path10986"
           inkscape:connector-curvature="0" /><path
           d="m 311.172,296.971 -1.276,0.927 -1.851,1.344 -0.214,0.156 -1,0.726 -0.275,-1.653 -0.249,-1.5 z"
           style="fill:#dc2831;fill-opacity:1;fill-rule:nonzero;stroke:none"
           id="path10988"
           inkscape:connector-curvature="0" /><path
           d="m 319.228,291.118 -4.121,2.993 -13.893,-27.787 13.087,18.015 z"
           style="fill:#dc2831;fill-opacity:1;fill-rule:nonzero;stroke:none"
           id="path10990"
           inkscape:connector-curvature="0" /><path
           d="m 315.107,294.111 1.143,2.285 0.287,0.575 h -0.871 -4.494 -4.865 -0.239 -0.26 -4.594 v -2.999 -1.69 -3.691 -22.267 z"
           style="fill:#dc2831;fill-opacity:1;fill-rule:nonzero;stroke:none"
           id="path10992"
           inkscape:connector-curvature="0" /></g></g></g></svg>